<mxfile host="Electron" modified="2024-01-26T10:02:58.687Z" agent="Mozilla/5.0 (Windows NT 10.0; Win64; x64) AppleWebKit/537.36 (KHTML, like Gecko) draw.io/22.0.2 Chrome/114.0.5735.289 Electron/25.8.4 Safari/537.36" etag="dttPb87gYDlWV_csi7kd" version="22.0.2" type="device">
  <diagram name="第 1 页" id="ao1uuemWxlGWUCBMKhTe">
    <mxGraphModel dx="831" dy="954" grid="1" gridSize="10" guides="1" tooltips="1" connect="1" arrows="1" fold="1" page="1" pageScale="1" pageWidth="827" pageHeight="1169" math="0" shadow="0">
      <root>
        <mxCell id="0" />
        <mxCell id="1" parent="0" />
        <mxCell id="IeVtwtEXddsQ01UkPilD-2" value="3" style="whiteSpace=wrap;html=1;aspect=fixed;" vertex="1" parent="1">
          <mxGeometry x="430" y="80" width="80" height="80" as="geometry" />
        </mxCell>
        <mxCell id="IeVtwtEXddsQ01UkPilD-3" value="2" style="whiteSpace=wrap;html=1;aspect=fixed;" vertex="1" parent="1">
          <mxGeometry x="350" y="80" width="80" height="80" as="geometry" />
        </mxCell>
        <mxCell id="IeVtwtEXddsQ01UkPilD-4" value="2" style="whiteSpace=wrap;html=1;aspect=fixed;" vertex="1" parent="1">
          <mxGeometry x="270" y="80" width="80" height="80" as="geometry" />
        </mxCell>
        <mxCell id="IeVtwtEXddsQ01UkPilD-5" value="1" style="whiteSpace=wrap;html=1;aspect=fixed;" vertex="1" parent="1">
          <mxGeometry x="190" y="80" width="80" height="80" as="geometry" />
        </mxCell>
        <mxCell id="IeVtwtEXddsQ01UkPilD-6" value="1" style="whiteSpace=wrap;html=1;aspect=fixed;" vertex="1" parent="1">
          <mxGeometry x="110" y="80" width="80" height="80" as="geometry" />
        </mxCell>
        <mxCell id="IeVtwtEXddsQ01UkPilD-7" value="1" style="whiteSpace=wrap;html=1;aspect=fixed;" vertex="1" parent="1">
          <mxGeometry x="30" y="80" width="80" height="80" as="geometry" />
        </mxCell>
        <mxCell id="IeVtwtEXddsQ01UkPilD-8" value="" style="endArrow=classic;html=1;rounded=0;" edge="1" parent="1">
          <mxGeometry width="50" height="50" relative="1" as="geometry">
            <mxPoint x="154.75" y="230" as="sourcePoint" />
            <mxPoint x="154.75" y="160" as="targetPoint" />
          </mxGeometry>
        </mxCell>
        <mxCell id="IeVtwtEXddsQ01UkPilD-9" value="" style="endArrow=classic;html=1;rounded=0;" edge="1" parent="1">
          <mxGeometry width="50" height="50" relative="1" as="geometry">
            <mxPoint x="64.25" y="230" as="sourcePoint" />
            <mxPoint x="64.25" y="160" as="targetPoint" />
          </mxGeometry>
        </mxCell>
        <mxCell id="IeVtwtEXddsQ01UkPilD-11" value="&lt;font style=&quot;font-size: 25px;&quot;&gt;findDouble=t&lt;br&gt;temp=3&lt;br&gt;i=5&lt;br&gt;j=8&lt;br&gt;&lt;/font&gt;" style="rounded=1;whiteSpace=wrap;html=1;" vertex="1" parent="1">
          <mxGeometry x="30" y="1010" width="280" height="190" as="geometry" />
        </mxCell>
        <mxCell id="IeVtwtEXddsQ01UkPilD-12" value="1" style="whiteSpace=wrap;html=1;aspect=fixed;" vertex="1" parent="1">
          <mxGeometry x="490" y="1250" width="80" height="80" as="geometry" />
        </mxCell>
        <mxCell id="IeVtwtEXddsQ01UkPilD-13" value="1" style="whiteSpace=wrap;html=1;aspect=fixed;" vertex="1" parent="1">
          <mxGeometry x="410" y="1250" width="80" height="80" as="geometry" />
        </mxCell>
        <mxCell id="IeVtwtEXddsQ01UkPilD-14" value="1" style="whiteSpace=wrap;html=1;aspect=fixed;" vertex="1" parent="1">
          <mxGeometry x="330" y="1250" width="80" height="80" as="geometry" />
        </mxCell>
        <mxCell id="IeVtwtEXddsQ01UkPilD-15" value="1" style="whiteSpace=wrap;html=1;aspect=fixed;" vertex="1" parent="1">
          <mxGeometry x="200" y="470" width="80" height="80" as="geometry" />
        </mxCell>
        <mxCell id="IeVtwtEXddsQ01UkPilD-16" value="0" style="whiteSpace=wrap;html=1;aspect=fixed;" vertex="1" parent="1">
          <mxGeometry x="120" y="470" width="80" height="80" as="geometry" />
        </mxCell>
        <mxCell id="IeVtwtEXddsQ01UkPilD-17" value="0" style="whiteSpace=wrap;html=1;aspect=fixed;" vertex="1" parent="1">
          <mxGeometry x="40" y="470" width="80" height="80" as="geometry" />
        </mxCell>
        <mxCell id="IeVtwtEXddsQ01UkPilD-19" value="" style="endArrow=classic;html=1;rounded=0;" edge="1" parent="1">
          <mxGeometry width="50" height="50" relative="1" as="geometry">
            <mxPoint x="359.5" y="1030" as="sourcePoint" />
            <mxPoint x="359.5" y="960" as="targetPoint" />
          </mxGeometry>
        </mxCell>
        <mxCell id="IeVtwtEXddsQ01UkPilD-20" value="2" style="whiteSpace=wrap;html=1;aspect=fixed;" vertex="1" parent="1">
          <mxGeometry x="520" y="470" width="80" height="80" as="geometry" />
        </mxCell>
        <mxCell id="IeVtwtEXddsQ01UkPilD-21" value="3" style="whiteSpace=wrap;html=1;aspect=fixed;" vertex="1" parent="1">
          <mxGeometry x="680" y="470" width="80" height="80" as="geometry" />
        </mxCell>
        <mxCell id="IeVtwtEXddsQ01UkPilD-22" value="3" style="whiteSpace=wrap;html=1;aspect=fixed;" vertex="1" parent="1">
          <mxGeometry x="600" y="470" width="80" height="80" as="geometry" />
        </mxCell>
        <mxCell id="IeVtwtEXddsQ01UkPilD-25" value="1" style="whiteSpace=wrap;html=1;aspect=fixed;" vertex="1" parent="1">
          <mxGeometry x="440" y="600" width="80" height="80" as="geometry" />
        </mxCell>
        <mxCell id="IeVtwtEXddsQ01UkPilD-26" value="1" style="whiteSpace=wrap;html=1;aspect=fixed;" vertex="1" parent="1">
          <mxGeometry x="360" y="600" width="80" height="80" as="geometry" />
        </mxCell>
        <mxCell id="IeVtwtEXddsQ01UkPilD-27" value="0" style="whiteSpace=wrap;html=1;aspect=fixed;" vertex="1" parent="1">
          <mxGeometry x="120" y="690" width="80" height="80" as="geometry" />
        </mxCell>
        <mxCell id="IeVtwtEXddsQ01UkPilD-28" value="0" style="whiteSpace=wrap;html=1;aspect=fixed;" vertex="1" parent="1">
          <mxGeometry x="40" y="690" width="80" height="80" as="geometry" />
        </mxCell>
        <mxCell id="IeVtwtEXddsQ01UkPilD-29" value="" style="endArrow=classic;html=1;rounded=0;" edge="1" parent="1">
          <mxGeometry width="50" height="50" relative="1" as="geometry">
            <mxPoint x="620" y="1410" as="sourcePoint" />
            <mxPoint x="620" y="1340" as="targetPoint" />
          </mxGeometry>
        </mxCell>
        <mxCell id="IeVtwtEXddsQ01UkPilD-30" value="" style="endArrow=classic;html=1;rounded=0;" edge="1" parent="1">
          <mxGeometry width="50" height="50" relative="1" as="geometry">
            <mxPoint x="369.5" y="1400" as="sourcePoint" />
            <mxPoint x="369.5" y="1330" as="targetPoint" />
          </mxGeometry>
        </mxCell>
        <mxCell id="IeVtwtEXddsQ01UkPilD-31" value="2" style="whiteSpace=wrap;html=1;aspect=fixed;" vertex="1" parent="1">
          <mxGeometry x="400" y="880" width="80" height="80" as="geometry" />
        </mxCell>
        <mxCell id="IeVtwtEXddsQ01UkPilD-32" value="3" style="whiteSpace=wrap;html=1;aspect=fixed;" vertex="1" parent="1">
          <mxGeometry x="520" y="690" width="80" height="80" as="geometry" />
        </mxCell>
        <mxCell id="IeVtwtEXddsQ01UkPilD-33" value="3" style="whiteSpace=wrap;html=1;aspect=fixed;" vertex="1" parent="1">
          <mxGeometry x="480" y="880" width="80" height="80" as="geometry" />
        </mxCell>
        <mxCell id="IeVtwtEXddsQ01UkPilD-34" value="1" style="whiteSpace=wrap;html=1;aspect=fixed;" vertex="1" parent="1">
          <mxGeometry x="280" y="690" width="80" height="80" as="geometry" />
        </mxCell>
        <mxCell id="IeVtwtEXddsQ01UkPilD-35" value="1" style="whiteSpace=wrap;html=1;aspect=fixed;" vertex="1" parent="1">
          <mxGeometry x="320" y="880" width="80" height="80" as="geometry" />
        </mxCell>
        <mxCell id="IeVtwtEXddsQ01UkPilD-36" value="3" style="whiteSpace=wrap;html=1;aspect=fixed;" vertex="1" parent="1">
          <mxGeometry x="600" y="690" width="80" height="80" as="geometry" />
        </mxCell>
      </root>
    </mxGraphModel>
  </diagram>
</mxfile>
